<?xml version="1.0" encoding="UTF-8"?><svg id="_레이어_1" xmlns="http://www.w3.org/2000/svg" width="297.74mm" height="578.63mm" viewBox="0 0 843.99 1640.22"><path d="M325.28,155.33c-.19-11.3,1.27-20.62,4.38-27.96,3.11-7.34,6.96-12.94,11.58-16.8,4.61-3.86,8.9-6.35,12.85-7.48l-2.82-6.21c-4.71,0-9.32-2.02-13.84-6.07-4.52-4.05-7.06-9.74-7.63-17.09-.75-11.67,3.57-21.23,12.99-28.67,9.41-7.44,23.82-11.16,43.21-11.16,15.63,0,29.18,3.86,40.67,11.58,11.48,7.72,19.86,19.68,25.14,35.87h19.49c3.01,0,5.23-.94,6.64-2.83,1.41-1.88,2.12-4.33,2.12-7.34v-27.96c0-7.72,2.54-14.21,7.62-19.49,5.08-5.27,11.96-7.91,20.62-7.91s15.11,2.68,19.91,8.05c4.8,5.37,7.2,12,7.2,19.91v190.36c0,7.15-2.5,13.18-7.48,18.08-4.99,4.89-11.54,7.34-19.63,7.34s-14.83-2.45-20.19-7.34c-5.37-4.9-8.05-10.92-8.05-18.08v-75.69h-25.14c-4.14,20.15-11.96,34.88-23.44,44.2-11.49,9.32-25.33,13.98-41.52,13.98-10.55,0-20.67-2.16-30.36-6.5-9.7-4.33-17.7-11.01-24.01-20.05-6.31-9.04-9.74-20.62-10.31-34.74ZM383.17,152.79c7.53,0,13.18-2.3,16.95-6.92,3.76-4.61,5.65-12.75,5.65-24.43s-1.98-20.62-5.93-25.14c-3.95-4.52-9.6-6.78-16.95-6.78s-13.18,2.26-16.95,6.78c-3.77,4.52-5.65,12.9-5.65,25.14,0,11.49,1.88,19.58,5.65,24.29,3.76,4.71,9.51,7.06,17.23,7.06ZM457.45,110.15c.19,2.45.33,4.9.42,7.34.09,2.45.14,4.99.14,7.62v4.52h13.27c3.01,0,5.23-.94,6.64-2.82,1.41-1.88,2.12-4.33,2.12-7.34v-9.32h-22.59Z"/><path d="M343.82,738.09h125.4c-.56,3.58-1.13,7.25-1.69,11.01-3.77,34.08-9.42,63.93-16.95,89.53,17.51,9.98,26.27,27.39,26.27,52.25,0,9.79-1.32,19.77-3.95,29.94-2.64,10.17-5.93,19.11-9.88,26.83h-39.54c5.08-6.96,9.74-15.67,13.98-26.12s6.35-20.19,6.35-29.23c0-7.91-1.79-14.31-5.37-19.2-16.76,37.84-38.32,58.37-64.68,61.57-1.51.19-3.67.28-6.5.28-8.47,0-15.82-1.98-22.03-5.93-6.21-3.95-10.92-9.27-14.12-15.96-3.2-6.68-4.8-13.88-4.8-21.61,0-9.04,2.16-17.74,6.5-26.12,4.33-8.38,10.92-15.63,19.77-21.75,8.85-6.12,19.77-10.12,32.76-12,12.43-1.7,23.25-2.26,32.48-1.7,5.08-17.88,9.41-38.13,12.99-60.72h-86.99v-31.07ZM407.36,860.95c-4.14-.19-9.98.19-17.51,1.13-9.79,1.51-17.23,5.18-22.31,11.01-5.08,5.84-7.63,11.96-7.63,18.36,0,3.77.89,6.83,2.68,9.18,1.79,2.36,4.19,3.34,7.2,2.97,13.93-1.5,26.45-15.72,37.56-42.65ZM533.33,730.75v246.28h-33.89v-246.28h33.89Z"/><path d="M803.74,153.36h-89.25v48.58h-33.89v-48.58h-106.19v-31.07h229.33v31.07ZM610,23.86c8.66-8,21.08-13.04,37.28-15.11,13.18-1.88,27.11-2.82,41.8-2.82s28.81.94,41.8,2.82c16.19,2.07,28.62,7.11,37.28,15.11,8.66,8,12.99,18.22,12.99,30.64v1.69c0,8.1-1.98,15.63-5.93,22.59-3.95,6.97-9.88,12.57-17.79,16.8s-17.51,6.35-28.81,6.35h-79.08c-11.3,0-20.9-2.12-28.81-6.35-7.91-4.24-13.84-9.84-17.79-16.8-3.95-6.96-5.93-14.5-5.93-22.59v-1.69c0-12.43,4.33-22.64,12.99-30.64ZM734.69,261.67c-15.91,1.98-31.3,2.97-46.18,2.97-17.89,0-33.47-1.55-46.74-4.66-13.27-3.11-22.92-7.96-28.95-14.54-5.46-5.84-9.32-12.48-11.58-19.91-2.26-7.44-3.39-15.86-3.39-25.28,0-7.34.66-16.95,1.98-28.81l33.89,3.39c-1.13,10.73-1.69,19.49-1.69,26.27,0,11.3,1.88,18.92,5.65,22.88,2.82,3.01,8.61,5.32,17.37,6.92,8.75,1.6,19.44,2.4,32.05,2.4,14.69,0,30.26-1.04,46.74-3.11,16.47-2.07,31.87-5.08,46.18-9.04v32.2c-14.31,3.57-29.42,6.35-45.33,8.33ZM635.27,67.07c2.92,2.54,7.67,3.81,14.26,3.81h79.08c6.59,0,11.34-1.27,14.26-3.81,2.92-2.54,4.38-6.16,4.38-10.87v-1.69c0-4.33-1.51-7.63-4.52-9.88-3.01-2.26-8.47-3.86-16.38-4.8-11.86-1.88-24.29-2.82-37.28-2.82s-25.23.94-37.28,2.82c-7.91.94-13.37,2.54-16.38,4.8-3.01,2.26-4.52,5.56-4.52,9.88v1.69c0,4.71,1.46,8.33,4.38,10.87Z"/><path d="M105.85,169.74h-49.71c-10.73,0-19.77-9.04-19.77-19.49,0-11.01,9.04-20.05,19.77-20.05h153.07c11.3,0,20.05,9.04,20.05,20.05s-8.75,19.49-20.05,19.49h-52.25c-.85,25.42-4.24,57.61-12.99,78.23-5.65,13.27-14.97,17.23-25.7,17.23-17.51,0-28.81-16.1-23.16-32.76,6.78-20.62,9.88-41.23,10.73-62.7ZM189.73,8.47c10.73,0,19.49,9.04,19.49,19.77v10.45c0,20.62-1.98,50.55-8.75,67.78-4.52,11.3-12.43,16.66-23.72,16.66-14.4,0-24.01-10.73-24.01-22.88,0-2.26.28-6.78,1.69-11.01,3.67-11.3,5.08-33.89,5.08-41.23h-92.07c-11.01,0-19.77-8.47-19.77-19.77s8.76-19.77,19.77-19.77h122.29ZM236.33,25.42c0-14.4,11.3-25.42,25.42-25.42s25.42,11.01,25.42,25.42v217.18c0,14.69-11.3,25.42-25.42,25.42s-25.42-10.73-25.42-25.42V25.42Z"/><path d="M332.22,1526.41c-10.73,0-19.49-8.76-19.49-19.49v-105.34c0-10.73,8.75-19.49,19.49-19.49h120.31c11.01,0,19.77,8.75,19.77,19.77s-8.75,19.77-19.77,19.77h-89.53v65.81c37.85,0,73.15-2.54,107.04-9.32,1.41-.28,3.11-.57,4.8-.57,10.73,0,19.49,8.76,19.49,19.49,0,9.04-6.78,16.95-14.97,18.64-39.82,8.19-82.19,10.73-133.02,10.73h-14.12ZM344.08,1640.22c-10.73,0-19.49-8.75-19.49-19.49v-58.46c0-10.73,8.75-19.49,19.49-19.49h197.13c10.73,0,19.49,8.76,19.49,19.49v58.46c0,10.73-8.76,19.49-19.49,19.49h-197.13ZM374.87,1601.82h135.56v-20.62h-135.56v20.62ZM509.87,1469.08h-48.58c-11.01,0-19.77-8.75-19.77-19.77s8.75-19.77,19.77-19.77h48.58v-29.09c0-14.4,11.3-25.42,25.42-25.42s25.42,11.01,25.42,25.42v109.86c0,14.69-11.3,25.42-25.42,25.42s-25.42-10.73-25.42-25.42v-41.23Z"/><path d="M444.98,490v18.92h79.08c12.14,0,16.95,5.37,16.95,16.66v37.56c0,11.3-5.08,19.49-16.38,19.49h-173.97v15.25h181.6c10.45,0,14.69,4.8,14.69,14.69,0,10.73-4.24,14.69-14.69,14.69h-200.52c-11.01,0-16.1-5.08-16.1-16.38v-41.8c0-11.3,5.08-16.1,16.1-16.1h174.26v-14.97h-175.95c-10.17,0-14.4-5.37-14.4-14.69,0-10.73,4.24-14.4,14.4-14.4h78.8v-18.92h-94.61c-10.17,0-14.69-4.52-14.69-15.82s4.52-16.38,14.69-16.38h228.2c10.45,0,14.69,5.08,14.69,16.38s-4.24,15.82-14.69,15.82h-97.44ZM330.88,403.58c-10.17,0-14.4-5.65-14.4-17.23s4.24-16.95,14.4-16.95h186.68c15.82,0,21.75,6.21,20.9,21.18l-1.98,45.47c-.56,9.6-6.5,13.56-18.92,13.27-11.86-.28-18.08-6.78-17.51-16.66l1.13-29.09h-170.3Z"/><path d="M26.54,425.32c0-36.15,24.29-59.03,64.39-59.03,7.91,0,10.73,4.24,10.73,9.88v24.29c0,6.5-1.98,8.19-5.37,8.47-6.5.56-14.4,5.93-14.4,16.38s7.91,15.82,14.4,16.38c3.39.28,5.37,1.98,5.37,8.47v24.29c0,5.65-2.82,9.88-10.73,9.88-40.1,0-64.39-22.88-64.39-59.03ZM260.95,590.26c16.1,0,23.16,8.19,23.16,18.92s-7.06,18.64-23.16,18.64H57.32c-16.1,0-23.16-7.06-23.16-23.16v-34.74c0-16.1,5.08-23.16,23.16-23.16h157.59v-11.3H57.32c-16.1,0-23.16-7.91-23.16-18.08s7.06-17.79,23.16-17.79h199.39c16.1,0,23.16,7.06,23.16,23.16v33.04c0,16.1-7.06,23.16-23.16,23.16H99.12v11.3h161.83ZM112.96,474.46v-24.29c0-6.5,1.98-8.19,5.37-8.47,6.5-.56,14.4-5.93,14.4-16.38s-7.91-15.82-14.4-16.38c-3.39-.28-5.37-1.98-5.37-8.47v-24.29c0-5.65,2.82-9.88,10.73-9.88,30.5,0,51.68,13.27,60.16,35.3h36.71v-13.27c0-14.12,11.58-23.44,29.94-23.44s29.37,9.04,29.37,23.16v80.21c0,14.12-11.58,23.16-29.94,23.16s-29.37-9.04-29.37-23.16v-18.64h-36.71c-8.75,21.75-29.94,34.74-60.16,34.74-7.91,0-10.73-4.24-10.73-9.88Z"/><path d="M605.34,1215.89c-7.34,0-12.71-1.55-16.1-4.66-3.39-3.11-5.08-7.29-5.08-12.57s1.74-9.46,5.22-12.57c3.48-3.11,8.8-4.66,15.96-4.66h217.47c7.34,0,12.71,1.55,16.1,4.66,3.39,3.11,5.08,7.3,5.08,12.57s-1.74,9.46-5.22,12.57c-3.49,3.11-8.8,4.66-15.96,4.66h-217.47ZM656.18,1110.26c0,4.33.85,7.86,2.54,10.59,1.69,2.73,4.85,4.85,9.46,6.35,4.61,1.51,10.92,2.54,18.92,3.11,8,.56,18.31.85,30.93.85,17.13,0,31.02-.56,41.66-1.69,10.64-1.13,18.92-2.82,24.85-5.08,5.93-2.26,9.93-5.08,12-8.47,2.07-3.39,3.11-7.44,3.11-12.14,7.72,0,13.93,1.84,18.64,5.51,4.7,3.67,7.06,8.61,7.06,14.83,0,6.59-2.17,12.48-6.5,17.65-4.33,5.18-11.54,9.51-21.61,12.99-10.08,3.49-23.26,6.17-39.54,8.05-16.29,1.88-36.29,2.82-60.02,2.82-18.08,0-33.23-.89-45.47-2.68-12.24-1.79-22.03-4.7-29.37-8.76-7.34-4.05-12.57-9.41-15.67-16.1-3.11-6.68-4.66-15.01-4.66-25v-29.65c0-10.17,2.35-17.65,7.06-22.45,4.7-4.8,11.3-7.2,19.77-7.2s15.06,2.4,19.77,7.2c4.7,4.8,7.06,12.29,7.06,22.45v26.83ZM656.18,1257.4c0,4.33.85,7.86,2.54,10.59,1.69,2.73,4.85,4.85,9.46,6.36,4.61,1.5,10.92,2.54,18.92,3.11,8,.56,18.31.85,30.93.85,17.89,0,32.34-.71,43.35-2.12s19.58-3.53,25.7-6.35c6.12-2.82,10.21-6.26,12.29-10.31,2.07-4.05,3.11-8.8,3.11-14.26,7.72,0,13.93,2.07,18.64,6.21,4.7,4.14,7.06,9.32,7.06,15.53,0,6.59-2.21,12.66-6.64,18.22-4.43,5.55-11.72,10.4-21.89,14.54-10.17,4.14-23.58,7.34-40.25,9.6s-37.24,3.39-61.71,3.39c-16.2,0-30.27-.9-42.22-2.68-11.96-1.79-21.84-4.71-29.65-8.75-7.82-4.05-13.65-9.42-17.51-16.1-3.86-6.69-5.79-15.02-5.79-25v-7.34c0-10.17,2.35-17.65,7.06-22.45,4.7-4.8,11.3-7.2,19.77-7.2s15.06,2.4,19.77,7.2c4.7,4.8,7.06,12.29,7.06,22.45v4.52Z"/><path d="M564.7,854.59c0-12.14,5.08-24.57,27.4-26.27,49.42-3.67,167.48-3.67,204.76,0,22.31,2.26,27.68,14.12,27.68,26.27,0,11.01-5.37,24.57-27.68,26.55-37.28,3.39-155.33,3.11-204.76,0-22.31-1.41-27.4-15.53-27.4-26.55ZM771.15,811.38c-34.74,4.24-102.52,3.95-150.82.28-18.64-1.41-27.96-12.99-30.5-26.83-3.67-19.77-3.11-32.76.28-49.14,3.11-14.69,16.95-22.03,32.48-22.03,20.33,0,34.17,9.32,35.58,21.75,1.13,11.01,1.41,15.25.28,24.01,38.13-2.82,74-3.67,112.69-.56,20.9,1.69,27.11,14.4,27.11,24.57,0,12.99-6.21,25.42-27.11,27.96ZM779.62,978.01c-34.74,4.24-117.77,3.95-157.59-.28-18.64-1.98-28.24-13.27-30.5-27.96-2.54-16.95-2.82-29.65.28-42.08,3.11-12.43,17.79-18.08,33.33-18.08,20.33,0,35.02,7.62,36.15,17.79.56,5.65.85,10.73.28,16.1,37.28-3.39,79.36-4.24,118.34-1.13,20.9,1.69,26.83,16.66,26.83,27.68,0,13.84-6.21,25.42-27.11,27.96Z"/><path d="M465.1,1251.05c-.57,20.33-15.53,28.24-34.46,31.91-25.42,4.8-55.07,4.24-80.49.28-19.49-3.11-33.89-15.82-37-43.49-4.8-42.65-4.52-95.46-.56-128.79,2.54-22.03,13.84-34.17,29.09-38.41,22.88-6.5,61.57-6.21,84.16-1.13,21.46,4.8,30.79,17.79,33.04,39.26,2.82,27.4,3.39,63.83-.28,91.51-.85,6.21-2.82,18.08-5.93,25.98,8.75,3.95,12.71,12.99,12.43,22.88ZM398.17,1127.35c-8.19.85-18.08.85-26.55,0,1.7,15.53,1.7,81.34,0,98.57,8.47-.85,18.36-.56,26.55,0-1.41-17.23-1.41-83.03,0-98.57ZM484.59,1278.17c-6.21-45.19-6.21-155.33-.28-196.85,3.11-22.03,17.51-30.5,33.04-30.5s29.37,8.19,31.07,30.5c3.11,41.52,2.82,151.66-.28,196-1.69,23.16-13.27,34.17-32.48,33.61-18.92-.56-28.24-12.43-31.07-32.76Z"/><path d="M695.53,380.98c18.36-1.69,35.58.28,51.12,5.65v29.65l-2.82,17.79v123.42l2.54,41.52c-7.34,9.88-25.98,19.21-38.97,20.62l-12.43-8.76,2.54-44.06v-54.23l-12.71.28c-5.37,37.85-26.55,55.92-58.18,55.92-37,0-59.59-24.57-59.59-76.25s22.59-76.25,59.59-76.25c30.22,0,50.84,16.38,57.33,50.55l13.56-.28v-29.65l-4.8-18.92,2.82-37ZM640.74,492.54c0-23.44-4.52-33.04-13.84-33.04s-14.4,9.6-14.4,33.04,5.08,33.04,14.4,33.04,13.84-9.6,13.84-33.04ZM810.19,403.58l-2.82,17.79v143.75l2.82,45.19c-7.62,10.17-27.11,19.49-40.1,20.62l-12.71-8.76,2.82-47.73v-150.25l-5.37-18.92,2.82-38.41c18.92-1.69,36.72.28,52.53,5.65v31.07Z"/><path d="M139.71,862.5l-8.76-1.98c-5.65-1.5-11.11-2.26-16.38-2.26-6.03,0-12.05.85-18.08,2.54-6.4,1.51-12.24,2.64-17.51,3.39-5.27.75-11.77,1.13-19.49,1.13-10.73-.18-18.64-2.92-23.72-8.19-5.08-5.27-7.63-13.18-7.63-23.72,0-4.89.52-8.99,1.55-12.29,1.03-3.29,2.49-6.82,4.38-10.59,1.7-3.76,2.97-6.87,3.81-9.32.85-2.44,1.27-5.46,1.27-9.04,0-2.63-.47-5.46-1.41-8.47-.94-3.01-1.88-5.93-2.82-8.75-1.69-3.95-2.97-7.48-3.81-10.59-.85-3.11-1.27-6.35-1.27-9.74,0-10.54,2.78-18.64,8.33-24.29,5.55-5.65,13.04-8.47,22.45-8.47,3.95,0,8.09.33,12.43.99,4.33.66,8.47,1.37,12.43,2.12,9.41,2.07,17.23,3.11,23.44,3.11,7.34,0,13.18-.33,17.51-.99,4.33-.66,8.66-1.65,12.99-2.97,2.82-.75,5.79-1.41,8.9-1.98,3.11-.56,6.73-.85,10.87-.85,10.54,0,18.78,2.03,24.71,6.07,5.93,4.05,8.9,10.31,8.9,18.78,0,2.26-.1,3.95-.28,5.08l-.57,7.91c0,4.33.57,8.38,1.7,12.14,2.26,8.66,3.39,15.25,3.39,19.77,0,3.01-.38,5.98-1.13,8.9-.75,2.92-2.07,6.54-3.95,10.87-2.45,6.78-3.67,15.35-3.67,25.7,0,9.23-2.59,16.43-7.77,21.61-5.18,5.18-11.91,7.77-20.19,7.77-5.46,0-12.33-1.13-20.62-3.39ZM50.6,968.41c-7.63-6.59-11.44-14.97-11.44-25.14,0-3.95.57-8,1.69-12.14,1.13-3.95,1.7-7.25,1.7-9.88,0-3.01-.57-6.02-1.7-9.04-1.13-3.39-1.69-6.78-1.69-10.17,0-8.28,3.25-15.06,9.74-20.33,6.5-5.27,15.11-7.91,25.84-7.91,11.3,0,19.67,2.4,25.14,7.2,5.46,4.8,8.19,11.44,8.19,19.91,0,3.95-.38,7.53-1.13,10.73l-.56,4.52c0,5.08,2.44,7.63,7.34,7.63,2.07,0,5.37-.66,9.88-1.98,10.73-3.39,22.31-5.08,34.74-5.08,8.28,0,15.44.66,21.46,1.98,9.6,2.07,17.98,3.11,25.14,3.11,4.52,0,8.85-.42,12.99-1.27,4.14-.85,9.22-2.3,15.25-4.38,4.52-1.69,9.51-2.54,14.97-2.54,9.22,0,16.76,2.92,22.59,8.76,5.83,5.84,8.76,12.99,8.76,21.46,0,10.55-2.54,18.54-7.63,24.01-5.08,5.46-12.14,8.66-21.18,9.6-5.27.38-9.32.57-12.14.57-12.43,0-24.29-1.13-35.59-3.39-14.31-3.01-27.39-4.52-39.26-4.52-8.47,0-18.08.94-28.81,2.82-19.02,3.57-36.43,5.37-52.25,5.37-13.75,0-24.43-3.3-32.06-9.88ZM114,813.07c6.59,0,11.3-.38,14.12-1.13,3.95-.94,6.64-2.82,8.05-5.65s2.12-7.63,2.12-14.4c0-5.27-.99-9.27-2.97-12-1.98-2.73-4.94-4.38-8.9-4.94-6.03-.75-10.17-1.13-12.43-1.13-5.08,0-9.98.66-14.69,1.98-3.58.94-6.21,3.01-7.91,6.21-1.69,3.2-2.54,7.63-2.54,13.27,0,6.21.85,10.5,2.54,12.85,1.69,2.36,4.52,3.72,8.47,4.1,3.95.56,8.66.85,14.12.85ZM212.57,891.16c-5.46-5.18-8.47-12.75-9.04-22.73-.38-8.47,1.22-19.58,4.8-33.33,2.82-11.67,4.24-21.93,4.24-30.78,0-7.91-.94-16-2.82-24.29-1.32-6.4-2.17-12-2.54-16.8-.38-4.8-.47-9.93-.28-15.39.38-8.28,3.15-15.29,8.33-21.04,5.18-5.74,13.23-8.61,24.15-8.61s19.39,2.45,24.85,7.34c5.46,4.9,8.28,11.49,8.47,19.77.19,12.24-.75,21.75-2.82,28.52l-.57,3.11c0,1.51.61,2.54,1.84,3.11,1.22.56,3.25.66,6.07.28,5.08-.19,9.51,1.98,13.27,6.5,3.76,4.52,5.65,11.39,5.65,20.62,0,9.98-2.12,17.61-6.35,22.88-4.24,5.27-10.03,7.44-17.37,6.5h-1.41c-2.64,0-3.95,1.13-3.95,3.39,0,.75.19,1.88.56,3.39,2.26,7.16,3.39,14.31,3.39,21.46,0,3.39-.28,6.97-.85,10.73-3.2,15.44-14.97,23.16-35.3,23.16-9.42,0-16.85-2.59-22.31-7.77Z"/><path d="M19.21,1083.88h122.57v12.43h-28.52c-.57,24.85-5.65,49.14-15.53,72.3,25.14,11.86,38.69,27.11,48.86,55.35-10.45,36.15-37.28,37-45.19,29.66-1.69-28.24-3.67-48.01-7.91-75.12-17.79,36.43-47.73,69.48-88.4,94.89l-5.08-6.5c46.04-50.84,55.64-107.6,55.92-170.58H19.21v-12.43ZM156.18,1092.92c.28-9.6-2.82-13.27-11.01-13.27l.56-9.6c18.08,0,44.62-2.26,64.39-5.37l-4.52,94.33h13.84l4.52-96.87c14.4-3.11,31.63-5.93,44.06-5.93,7.34,0,11.3,1.69,11.01,6.78l-11.01,219.73c-1.13,14.69-14.97,28.52-35.02,28.52-12.43,0-20.05-4.52-20.05-15.82l5.65-121.16h-13.84l-4.52,100.26c0,15.53-14.69,28.24-32.76,28.24-12.99,0-18.92-5.65-18.92-15.82l7.63-194.03Z"/></svg>